<?xml version="1.0" standalone="no"?>
<!DOCTYPE svg PUBLIC "-//W3C//DTD SVG 20010904//EN"
 "http://www.w3.org/TR/2001/REC-SVG-20010904/DTD/svg10.dtd">
<svg version="1.0" xmlns="http://www.w3.org/2000/svg"
 width="234.000000pt" height="151.000000pt" viewBox="0 0 234.000000 151.000000"
 preserveAspectRatio="xMidYMid meet">

<g transform="translate(0.000000,151.000000) scale(0.100000,-0.100000)"
fill="#ffffff" stroke="none">
<path d="M1590 1135 c0 -6 7 -19 15 -29 44 -59 -21 -146 -136 -185 -159 -52
-394 -51 -574 3 -11 4 -4 -1 15 -10 19 -9 65 -23 103 -32 102 -24 89 -42 -29
-41 -89 1 -96 2 -91 20 3 10 4 19 2 19 -6 0 -65 -109 -65 -120 0 -7 112 -10
325 -10 179 0 325 2 325 5 0 2 -9 27 -20 55 -11 28 -20 52 -20 54 0 2 32 14
72 27 53 17 83 34 116 65 41 40 44 46 39 81 -4 24 -19 50 -42 72 -19 20 -35
31 -35 26z m-465 -285 c-3 -5 -10 -10 -16 -10 -5 0 -9 5 -9 10 0 6 7 10 16 10
8 0 12 -4 9 -10z m45 0 c0 -5 -7 -10 -16 -10 -8 0 -12 5 -9 10 3 6 10 10 16
10 5 0 9 -4 9 -10z m170 0 c0 -5 -4 -10 -10 -10 -5 0 -10 5 -10 10 0 6 5 10
10 10 6 0 10 -4 10 -10z m55 0 c3 -5 -1 -10 -9 -10 -8 0 -18 5 -21 10 -3 6 1
10 9 10 8 0 18 -4 21 -10z m-178 -6 c-3 -3 -12 -4 -19 -1 -8 3 -5 6 6 6 11 1
17 -2 13 -5z m-287 -34 c0 -5 -9 -10 -20 -10 -11 0 -20 5 -20 10 0 6 9 10 20
10 11 0 20 -4 20 -10z m50 0 c0 -5 -7 -10 -15 -10 -8 0 -15 5 -15 10 0 6 7 10
15 10 8 0 15 -4 15 -10z m40 0 c0 -5 -7 -10 -15 -10 -8 0 -15 5 -15 10 0 6 7
10 15 10 8 0 15 -4 15 -10z m40 0 c0 -5 -7 -10 -15 -10 -8 0 -15 5 -15 10 0 6
7 10 15 10 8 0 15 -4 15 -10z m50 0 c0 -5 -7 -10 -16 -10 -8 0 -12 5 -9 10 3
6 10 10 16 10 5 0 9 -4 9 -10z m45 0 c-3 -5 -10 -10 -16 -10 -5 0 -9 5 -9 10
0 6 7 10 16 10 8 0 12 -4 9 -10z m45 0 c0 -5 -4 -10 -10 -10 -5 0 -10 5 -10
10 0 6 5 10 10 10 6 0 10 -4 10 -10z m50 0 c0 -5 -7 -10 -16 -10 -8 0 -12 5
-9 10 3 6 10 10 16 10 5 0 9 -4 9 -10z m60 0 c0 -5 -4 -10 -10 -10 -5 0 -10 5
-10 10 0 6 5 10 10 10 6 0 10 -4 10 -10z m45 0 c3 -5 2 -10 -4 -10 -5 0 -13 5
-16 10 -3 6 -2 10 4 10 5 0 13 -4 16 -10z m55 0 c0 -5 -7 -10 -15 -10 -8 0
-15 5 -15 10 0 6 7 10 15 10 8 0 15 -4 15 -10z"/>
<path d="M520 559 c0 -42 -3 -52 -20 -56 -11 -3 -20 -9 -20 -14 0 -13 34 -11
48 3 14 14 16 118 2 118 -5 0 -10 -23 -10 -51z"/>
<path d="M1010 586 c0 -19 -4 -22 -25 -19 -19 4 -27 0 -36 -20 -17 -38 2 -67
46 -65 l35 1 0 64 c0 35 -4 63 -10 63 -5 0 -10 -11 -10 -24z m-2 -58 c-5 -34
-38 -37 -38 -4 0 20 5 26 21 26 15 0 20 -5 17 -22z"/>
<path d="M1232 594 c-45 -31 -19 -114 36 -114 55 0 84 84 40 114 -12 9 -29 16
-38 16 -9 0 -26 -7 -38 -16z m52 -10 c21 -8 22 -70 1 -78 -28 -10 -45 5 -45
39 0 18 6 36 13 38 6 3 13 6 14 6 1 1 8 -2 17 -5z"/>
<path d="M1350 545 c0 -51 3 -65 15 -65 12 0 15 14 15 65 0 51 -3 65 -15 65
-12 0 -15 -14 -15 -65z"/>
<path d="M1405 600 c3 -5 10 -10 16 -10 5 0 9 5 9 10 0 6 -7 10 -16 10 -8 0
-12 -4 -9 -10z"/>
<path d="M1660 600 c0 -5 5 -10 10 -10 6 0 10 5 10 10 0 6 -4 10 -10 10 -5 0
-10 -4 -10 -10z"/>
<path d="M582 558 c-28 -28 -7 -78 34 -78 29 0 46 23 42 57 -2 23 -8 29 -33
31 -17 2 -36 -3 -43 -10z m56 -31 c4 -20 -25 -34 -40 -19 -15 15 -1 44 19 40
10 -2 19 -11 21 -21z"/>
<path d="M690 524 c0 -24 5 -44 10 -44 6 0 10 16 10 36 0 28 3 35 18 32 11 -2
18 -14 20 -36 5 -48 24 -39 20 11 -3 41 -4 42 -40 44 l-38 1 0 -44z"/>
<path d="M790 566 c0 -2 7 -20 15 -39 8 -20 15 -43 15 -52 0 -8 -7 -15 -15
-15 -8 0 -15 -4 -15 -10 0 -16 26 -12 42 8 8 9 20 31 26 47 5 17 13 38 17 48
4 10 3 17 -4 17 -6 0 -17 -15 -24 -32 l-14 -33 -7 33 c-4 17 -14 32 -22 32 -8
0 -14 -2 -14 -4z"/>
<path d="M1072 558 c-15 -15 -16 -50 0 -66 15 -15 58 -16 58 -2 0 6 -9 10 -19
10 -11 0 -23 5 -26 10 -4 6 7 10 25 10 27 0 31 3 28 23 -3 25 -45 36 -66 15z
m43 -7 c7 -12 -12 -24 -25 -16 -11 7 -4 25 10 25 5 0 11 -4 15 -9z"/>
<path d="M1410 525 c0 -25 5 -45 10 -45 6 0 10 20 10 45 0 25 -4 45 -10 45 -5
0 -10 -20 -10 -45z"/>
<path d="M1456 548 c23 -76 44 -90 62 -40 5 15 13 35 17 45 5 12 2 17 -9 17
-9 0 -16 -8 -16 -17 0 -10 -5 -25 -10 -33 -7 -12 -11 -8 -16 18 -4 18 -13 32
-21 32 -10 0 -12 -6 -7 -22z"/>
<path d="M1560 551 c-14 -27 -13 -37 6 -55 17 -18 64 -22 64 -6 0 6 -11 10
-25 10 -14 0 -25 5 -25 10 0 6 14 10 30 10 31 0 39 17 18 38 -18 18 -56 14
-68 -7z m50 -6 c0 -8 -7 -15 -15 -15 -16 0 -20 12 -8 23 11 12 23 8 23 -8z"/>
<path d="M1660 525 c0 -25 5 -45 10 -45 6 0 10 20 10 45 0 25 -4 45 -10 45 -5
0 -10 -20 -10 -45z"/>
<path d="M1710 523 c0 -52 23 -57 28 -5 2 20 9 32 18 32 28 0 13 17 -16 18
-29 1 -30 -1 -30 -45z"/>
<path d="M1790 561 c0 -5 9 -7 20 -4 11 3 20 0 20 -6 0 -6 -11 -14 -26 -17
-18 -5 -24 -12 -22 -28 2 -17 11 -21 41 -23 35 -2 37 0 37 27 0 46 -10 60 -41
60 -16 0 -29 -4 -29 -9z m40 -46 c0 -8 -7 -15 -15 -15 -26 0 -18 20 13 29 1 1
2 -6 2 -14z"/>
<path d="M920 259 c0 -31 4 -48 10 -44 6 3 10 26 10 51 0 24 -4 44 -10 44 -5
0 -10 -23 -10 -51z"/>
<path d="M963 260 c0 -30 2 -43 4 -27 2 15 2 39 0 55 -2 15 -4 2 -4 -28z"/>
<path d="M1248 304 c-12 -11 -10 -82 2 -89 6 -3 10 2 10 11 0 16 1 16 20 -1
11 -10 20 -13 20 -7 0 6 -5 14 -11 18 -8 4 -8 9 0 17 19 19 12 31 -8 13 -19
-17 -20 -17 -23 14 -2 18 -6 28 -10 24z"/>
<path d="M770 255 c0 -25 5 -45 10 -45 6 0 10 9 10 19 0 11 8 22 18 24 16 4
16 5 0 6 -10 0 -18 7 -18 15 0 8 8 17 18 19 10 3 6 5 -10 6 -27 1 -28 -1 -28
-44z"/>
<path d="M1360 255 c0 -50 16 -58 58 -29 40 28 22 74 -30 74 -27 0 -28 -2 -28
-45z m55 5 c0 -16 -6 -26 -17 -28 -14 -3 -18 3 -18 28 0 25 4 31 18 28 11 -2
17 -12 17 -28z"/>
<path d="M1056 282 c-7 -12 8 -65 20 -69 5 -2 9 14 9 34 0 34 -17 55 -29 35z"/>
<path d="M843 250 c2 -30 6 -35 30 -37 25 -2 27 1 27 33 0 40 -17 46 -22 7 -4
-37 -21 -36 -30 2 -6 29 -6 29 -5 -5z"/>
<path d="M994 268 c-4 -6 0 -16 9 -23 21 -15 22 -29 2 -21 -8 3 -15 1 -15 -4
0 -14 37 -12 46 2 4 6 -1 17 -12 25 -16 12 -17 15 -4 23 13 8 13 10 -2 10 -9
0 -20 -5 -24 -12z"/>
<path d="M1110 271 c0 -6 7 -8 15 -5 8 4 15 2 15 -4 0 -5 -9 -12 -21 -15 -22
-6 -22 -28 -1 -35 7 -2 10 2 6 12 -3 9 -1 16 5 16 6 0 11 -7 11 -15 0 -8 5
-15 11 -15 6 0 9 14 7 33 -2 24 -8 33 -25 35 -13 2 -23 -1 -23 -7z"/>
<path d="M1193 273 c-18 -7 -16 -52 3 -60 8 -3 21 0 27 7 8 9 8 11 1 7 -7 -4
-17 0 -23 7 -10 11 -7 18 11 30 21 15 10 21 -19 9z"/>
<path d="M1460 265 c-17 -20 -3 -48 26 -53 18 -4 18 -3 -1 12 -20 15 -20 15 3
16 17 0 23 5 20 17 -4 24 -32 28 -48 8z m35 -5 c3 -5 -1 -10 -10 -10 -9 0 -13
5 -10 10 3 6 8 10 10 10 2 0 7 -4 10 -10z"/>
<path d="M1533 245 c6 -20 15 -34 21 -32 14 5 39 67 26 67 -5 0 -13 -12 -17
-27 l-6 -28 -10 28 c-13 40 -27 33 -14 -8z"/>
</g>
</svg>
